<svg xmlns="http://www.w3.org/2000/svg" width="48" height="48" id="barista"><path d="M45 48H1a1 1 0 0 1-1-1v-6a1 1 0 0 1 1-1h19V22H7a1 1 0 0 1-1-1V1a1 1 0 0 1 1-1h37c2.206 0 4 1.794 4 4v22l-2.004 21.095A1 1 0 0 1 45 48zM2 46h42.091l1.914-20.095L46 4c0-1.103-.897-2-2-2H8v18h13a1 1 0 0 1 1 1v20a1 1 0 0 1-1 1H2v4z"></path><path d="M38 47h-2V25a1 1 0 0 1 1-1h10v2h-9v21zM47 12H35a1 1 0 1 1 0-2h12a1 1 0 1 1 0 2zM47 16H35a1 1 0 1 1 0-2h12a1 1 0 1 1 0 2zM47 20H35a1 1 0 1 1 0-2h12a1 1 0 1 1 0 2zM17 33H9a1 1 0 0 1-1-1v-4a1 1 0 0 1 1-1h8a1 1 0 0 1 1 1v4a1 1 0 0 1-1 1zm-7-2h6v-2h-6v2z"></path><path d="M9 31H1a1 1 0 1 1 0-2h8a1 1 0 1 1 0 2zM14 21h2v7h-2zM10 21h2v7h-2zM14 12c-2.206 0-4-1.794-4-4s1.794-4 4-4 4 1.794 4 4-1.794 4-4 4zm0-6c-1.103 0-2 .897-2 2s.897 2 2 2 2-.897 2-2-.897-2-2-2zM13 35a1 1 0 0 1-1-1v-2a1 1 0 1 1 2 0v2a1 1 0 0 1-1 1z"></path></svg>